# xmcd CD database file
# Copyright (C) 1993-1998 Ti Kan
#
# Track frame offsets:
#	150
#	22785
#	39964
#	63139
#	101702
#	117532
#	139582
#	152762
#	195567
#	224667
#	248470
#	268017
#
# Disc length: 3947 seconds
#
# Revision: 1
# Processed by: cddbd v1.4b41PL1 Copyright (c) Steve Scherf et al.
# Submitted via: xmcd 2.2 PL0
#
DISCID=9f0f690c
DTITLE=Gate Street Blues/I ain't drunk...
DYEAR=1900
DGENRE=
TTITLE0=Gate Street Stomp
TTITLE1=Texas Heat
TTITLE2=The Blues Overtook Me
TTITLE3=The Sky Is Crying
TTITLE4=If It Wasn't For You
TTITLE5=This Little Piggy Got None
TTITLE6=Nothin'  But The Blues
TTITLE7=Going Out To Breakfast
TTITLE8=I Love To Watch What You Do
TTITLE9=I'm Tore Down
TTITLE10=You Shall Live
TTITLE11=I Ain't Drunk
EXTD=
EXTT0=
EXTT1=
EXTT2=
EXTT3=
EXTT4=
EXTT5=
EXTT6=
EXTT7=
EXTT8=
EXTT9=
EXTT10=
EXTT11=
PLAYORDER=
